<svg width="30" height="30" viewBox="0 0 30 30" fill="none" xmlns="http://www.w3.org/2000/svg">
<path d="M22.6167 28.3334H7.38331C7.06264 28.3258 6.7466 28.2551 6.45326 28.1254C6.15991 27.9956 5.895 27.8094 5.67367 27.5772C5.45234 27.345 5.27892 27.0715 5.16333 26.7723C5.04773 26.4731 4.99223 26.1541 4.99998 25.8334V9.3584H6.66665V25.8334C6.65869 25.9352 6.67095 26.0376 6.7027 26.1347C6.73446 26.2318 6.7851 26.3216 6.8517 26.3991C6.9183 26.4765 6.99956 26.54 7.09079 26.586C7.18202 26.6319 7.28144 26.6594 7.38331 26.6667H22.6167C22.7185 26.6594 22.8179 26.6319 22.9092 26.586C23.0004 26.54 23.0817 26.4765 23.1483 26.3991C23.2149 26.3216 23.2655 26.2318 23.2973 26.1347C23.329 26.0376 23.3413 25.9352 23.3333 25.8334V9.3584H25V25.8334C25.0077 26.1541 24.9522 26.4731 24.8366 26.7723C24.721 27.0715 24.5476 27.345 24.3263 27.5772C24.105 27.8094 23.8401 27.9956 23.5467 28.1254C23.2534 28.2551 22.9373 28.3258 22.6167 28.3334Z" fill="black"/>
<path d="M25.65 7.50004H4.16671C3.94569 7.50004 3.73373 7.41224 3.57745 7.25596C3.42117 7.09968 3.33337 6.88772 3.33337 6.66671C3.33337 6.44569 3.42117 6.23373 3.57745 6.07745C3.73373 5.92117 3.94569 5.83337 4.16671 5.83337H25.65C25.871 5.83337 26.083 5.92117 26.2393 6.07745C26.3956 6.23373 26.4834 6.44569 26.4834 6.66671C26.4834 6.88772 26.3956 7.09968 26.2393 7.25596C26.083 7.41224 25.871 7.50004 25.65 7.50004Z" fill="black"/>
<path d="M17.5001 10.8333H19.1668V23.3333H17.5001V10.8333Z" fill="black"/>
<path d="M10.8334 10.8333H12.5V23.3333H10.8334V10.8333Z" fill="black"/>
<path d="M19.1667 4.88329H17.5834V3.33329H12.4167V4.88329H10.8334V3.33329C10.8328 2.90533 10.9969 2.49356 11.2917 2.18329C11.5865 1.87302 11.9893 1.68802 12.4167 1.66663H17.5834C18.0108 1.68802 18.4136 1.87302 18.7084 2.18329C19.0031 2.49356 19.1672 2.90533 19.1667 3.33329V4.88329Z" fill="black"/>
</svg>
